<?xml version="1.0" encoding="utf-8"?>
<!-- Generator: Adobe Illustrator 21.1.0, SVG Export Plug-In . SVG Version: 6.00 Build 0)  -->
<svg version="1.1" id="Layer_1" xmlns="http://www.w3.org/2000/svg" xmlns:xlink="http://www.w3.org/1999/xlink" x="0px" y="0px"
	 viewBox="0 0 267.1 508" style="enable-background:new 0 0 267.1 508;" xml:space="preserve">
<g>
	<path d="M231,286.6c8.2-90.9-16-183.6-69.9-251.6L133.5,0l-27.6,35C52.1,103.1,27.8,195.8,36,286.7c-23.2,24.8-36,56.9-36,91
		c0,30,12.3,64.4,12.3,64.4S20,391.7,49.7,359c3.4,20.7,15,41.8,15,41.8h137.6c0,0,7.9-13.1,15-41.8c28.5,32.6,37.4,83.1,37.4,83.1
		s12.4-26.7,12.4-64.4C267.1,343.6,254.2,311.5,231,286.6z M16.4,376.3c0.3-24.6,8.1-48,22.4-67.5c1.6,10.8,3.6,21.5,6,31.9
		C33.3,351,23.7,363,16.4,376.3z M133.5,26.6c0,0,25.4,30.5,37.7,52.6H95.7C107.1,56.9,133.5,26.6,133.5,26.6z M191.3,384.3h-49.5
		v-74.2h-16.5v74.2H75.8C38.4,290.5,43.8,181.6,87,95.7h93.2C223.4,181.6,228.7,290.5,191.3,384.3z M222.1,340.6
		c2.5-10.4,4.5-21,6.1-31.8c14.3,19.5,22.1,42.9,22.4,67.5C243.3,363,233.7,351,222.1,340.6z"/>
	<path d="M133.5,112.2c-18.2,0-33,14.8-33,33s14.8,33,33,33s33-14.8,33-33S151.7,112.2,133.5,112.2z M133.5,161.7
		c-9.1,0-16.5-7.4-16.5-16.5s7.4-16.5,16.5-16.5s16.5,7.4,16.5,16.5S142.6,161.7,133.5,161.7z"/>
	<rect x="125.3" y="417.3" width="16.5" height="66"/>
	<rect x="183" y="458.5" width="16.5" height="49.5"/>
	<rect x="67.5" y="458.5" width="16.5" height="49.5"/>
</g>
</svg>
