<?xml version="1.0" encoding="UTF-8"?>
<svg width="79px" height="79px" viewBox="0 0 79 79" version="1.1" xmlns="http://www.w3.org/2000/svg" xmlns:xlink="http://www.w3.org/1999/xlink">
    <!-- Generator: Sketch 60.1 (88133) - https://sketch.com -->
    <title>Combined Shape</title>
    <desc>Created with Sketch.</desc>
    <g id="Page-1" stroke="none" stroke-width="1" fill="none" fill-rule="evenodd">
        <g id="Artboard" transform="translate(-11.000000, -11.000000)" fill="#FFFFFF" fill-rule="nonzero">
            <path d="M50.467,11 C72.264,11 89.934,28.67 89.934,50.466 C89.934,72.262 72.263,89.932 50.467,89.932 C28.67,89.932 11,72.262 11,50.466 C11,28.67 28.67,11 50.467,11 Z M50.467,17.428 C32.22,17.428 17.428,32.219 17.428,50.466 C17.428,68.713 32.22,83.504 50.466,83.504 C68.712,83.504 83.504,68.713 83.504,50.466 C83.504,50.07 83.4973333,49.6771111 83.4837037,49.2855556 L83.458,48.699 L60.125,48.699 L60.125,51.729 L80.477,51.729 L80.469,51.816 C79.763,67.777 66.601,80.498 50.467,80.498 C33.88,80.498 20.434,67.053 20.434,50.466 C20.434,33.88 33.881,20.434 50.467,20.434 L51.1841907,20.4422111 L51.1841907,20.4422111 L51.901,20.467 L51.905,17.459 C51.428,17.438 50.948,17.428 50.467,17.428 Z M51.904,33.465 L48.873,33.465 L48.873,67.404 L51.904,67.404 L51.904,67.383 L60.077,67.383 L60.077,64.354 L51.904,64.354 L51.904,33.465 Z M38.143,33.324 C35.579018,33.324 33.5005,35.402518 33.5005,37.9665 C33.5005,40.530482 35.579018,42.609 38.143,42.609 C40.706982,42.609 42.7855,40.530482 42.7855,37.9665 C42.7855,35.402518 40.706982,33.324 38.143,33.324 Z M71.5,22.5 L68.5,22.5 L68.5,31 L60,31 L60,34 L68.5,34 L68.5,42.5 L71.5,42.5 L71.5,34 L80,34 L80,31 L71.5,31 L71.5,22.5 Z" id="Combined-Shape"></path>
        </g>
    </g>
</svg>